<svg xmlns="http://www.w3.org/2000/svg"  viewBox="0 0 48 48" width="48px" height="48px"><circle cx="24" cy="24" r="21" fill="#fcfdfa"/><path fill="#bdbdbd" d="M24,45C12.421,45,3,35.579,3,24S12.421,3,24,3s21,9.421,21,21S35.579,45,24,45z M24,4 C12.972,4,4,12.972,4,24s8.972,20,20,20s20-8.972,20-20S35.028,4,24,4z"/><path fill="#bdbdbd" d="M24,41c-9.374,0-17-7.626-17-17S14.626,7,24,7s17,7.626,17,17S33.374,41,24,41z M24,8 C15.178,8,8,15.178,8,24s7.178,16,16,16s16-7.178,16-16S32.822,8,24,8z"/><path fill="#bdbdbd" d="M24,37c-7.168,0-13-5.832-13-13s5.832-13,13-13s13,5.832,13,13S31.168,37,24,37z M24,12 c-6.617,0-12,5.383-12,12s5.383,12,12,12s12-5.383,12-12S30.617,12,24,12z"/><path fill="#bdbdbd" d="M24,33c-4.963,0-9-4.037-9-9s4.037-9,9-9s9,4.037,9,9S28.963,33,24,33z M24,16 c-4.411,0-8,3.589-8,8s3.589,8,8,8s8-3.589,8-8S28.411,16,24,16z"/><path fill="#bdbdbd" d="M24,29c-2.757,0-5-2.243-5-5s2.243-5,5-5s5,2.243,5,5S26.757,29,24,29z M24,20 c-2.206,0-4,1.794-4,4s1.794,4,4,4s4-1.794,4-4S26.206,20,24,20z"/><rect width="1" height="21" x="23.5" y="3" fill="#bdbdbd"/><rect width="1" height="20.506" x="16.25" y="6.497" fill="#bdbdbd" transform="rotate(-45.001 16.75 16.75)"/><rect width="20" height="1" x="4" y="23.5" fill="#bdbdbd"/><rect width="20.506" height="1" x="6.497" y="30.75" fill="#bdbdbd" transform="rotate(-45.001 16.75 31.25)"/><rect width="1" height="21" x="23.5" y="24" fill="#bdbdbd"/><rect width="1" height="20.408" x="30.715" y="21.011" fill="#bdbdbd" transform="rotate(-45.001 31.215 31.216)"/><rect width="21" height="1" x="24" y="23.5" fill="#bdbdbd"/><rect width="20.506" height="1" x="20.997" y="16.25" fill="#bdbdbd" transform="rotate(-45.001 31.25 16.75)"/><polygon fill="#ef6c00" points="24,24 13,9 19,6"/><polygon fill="#aed581" points="24,24 28,10 32,12"/><polygon fill="#ffea3b" points="8.5,20 8.5,28 24,24"/><polygon fill="#8bc34a" points="24,24 22,35 26,35"/><polygon fill="#ff9800" points="24,24 35,39 39,35"/><polygon fill="#304ffe" points="14,28 24,24 15,30"/><polygon fill="#304ffe" points="29.564,20.872 24,24 30.138,22.468"/></svg>