<svg xmlns="http://www.w3.org/2000/svg"  viewBox="0 0 24 24" width="48px" height="48px"><circle cx="21.953" cy="14.917" r=".002"/><path fill="#32648D" d="M18.991,14.727l0.002,0.002v0.001l-0.003,0.001c-0.145,0.053-0.265,0.075-0.366,0.12	c-0.103,0.041-0.186,0.116-0.235,0.212l-0.001,0.002c-0.062,0.115-0.116,0.319-0.1,0.666c0.041,0.03,0.091,0.053,0.142,0.069	l0.004,0.001c0.169,0.052,0.452,0.086,0.768,0.081c0.63-0.007,1.406-0.156,1.818-0.35c0.355-0.169,0.659-0.373,0.93-0.615	c-1.376,0.288-2.153,0.211-2.63,0.012C19.196,14.875,19.087,14.808,18.991,14.727z"/><polygon fill="#32648D" points="17.58,4.151 17.586,4.16 17.593,4.168"/><path fill="#32648D" d="M12.317,19.299c-0.001-0.025,0-0.051-0.001-0.076c0-0.01-0.001-0.017-0.001-0.027L12.317,19.299z"/><path fill="#32648D" d="M11.262,14.886c-0.058-0.029-0.126-0.05-0.199-0.06H11.06v-0.002h-0.021	c-0.052,0.005-0.128,0.023-0.276,0.188c-0.344,0.39-0.464,0.635-0.748,0.864c-0.284,0.228-0.652,0.35-1.388,0.503	c-0.233,0.048-0.367,0.101-0.455,0.144c0.029,0.024,0.026,0.03,0.069,0.053c0.108,0.06,0.246,0.113,0.358,0.142	c0.316,0.08,0.836,0.173,1.378,0.08c0.542-0.094,1.106-0.357,1.587-1.04c0.083-0.118,0.092-0.292,0.024-0.479	C11.52,15.092,11.368,14.931,11.262,14.886z"/><path fill="#32648D" d="M15.3,1.502l-0.057,0.011c0.019-0.004,0.04-0.006,0.059-0.01C15.301,1.503,15.301,1.502,15.3,1.502z"/><path fill="#32648D" d="M18.082,6.9c-0.671,0.009-1.047,0.184-1.245,0.413c-0.28,0.325-0.306,0.895-0.132,1.597	c0.173,0.703,0.53,1.489,0.866,2.142c0.168,0.327,0.331,0.621,0.462,0.86c0.132,0.24,0.229,0.41,0.288,0.555	c0.054,0.134,0.115,0.252,0.176,0.362c0.26-0.555,0.306-1.1,0.28-1.668c-0.034-0.703-0.196-1.422-0.172-2.15	c0.027-0.851,0.193-1.405,0.207-2.063C18.593,6.918,18.339,6.9,18.082,6.9z M18.206,7.406l-0.001,0.008c0,0.003,0,0.006,0,0.01	c0,0.046-0.013,0.09-0.036,0.126l0.001-0.001c-0.031,0.057-0.067,0.107-0.109,0.15c-0.098,0.109-0.229,0.185-0.377,0.211	L17.68,7.911c-0.021,0.003-0.045,0.004-0.07,0.004c-0.126,0-0.242-0.04-0.337-0.108l0.002,0.001	c-0.049-0.034-0.092-0.073-0.127-0.117L17.147,7.69c-0.031-0.034-0.053-0.078-0.062-0.125V7.563c0-0.005-0.001-0.01-0.001-0.015	c0-0.043,0.016-0.083,0.043-0.113c0.032-0.037,0.07-0.067,0.114-0.089l0.002-0.001c0.095-0.054,0.223-0.094,0.368-0.116	c0.054-0.008,0.108-0.012,0.158-0.013v0.003h0.049c0.065,0.002,0.125,0.009,0.178,0.022c0.053,0.012,0.099,0.03,0.136,0.055	C18.169,7.321,18.197,7.359,18.206,7.406L18.206,7.406z"/><path fill="#32648D" d="M7.077,11.307c0-0.18,0.014-0.356,0.04-0.529l-0.002,0.019c0.102-0.739,0.116-1.43,0.104-1.976	C7.207,8.289,7.169,7.935,7.169,7.714c0-0.003,0-0.006,0-0.009c0-0.003,0-0.007,0-0.01V7.69L7.168,7.684V7.683	c0-0.002,0-0.003,0-0.005c0-1.184,0.208-2.319,0.585-3.372C8.03,3.562,8.442,2.807,9.059,2.195C8.452,1.993,7.376,1.685,6.21,1.627	c-0.112-0.006-0.243-0.01-0.374-0.01H5.835v0.001c-0.125,0-0.251,0.004-0.375,0.011C4.462,1.687,3.518,1.98,2.844,2.704	C2.168,3.428,1.723,4.615,1.82,6.58c0.019,0.372,0.179,1.414,0.453,2.652c0.275,1.238,0.662,2.695,1.128,3.982	c0.467,1.287,1.033,2.407,1.571,2.937c0.271,0.265,0.506,0.372,0.719,0.363c0.214-0.01,0.472-0.135,0.787-0.518	c0.619-0.754,1.204-1.421,1.808-2.069l-0.02,0.021C7.536,13.303,7.077,12.36,7.077,11.307z"/><path fill="#32648D" d="M12.396,1.568V1.566c-1.168,0.003-2.005,0.36-2.641,0.895C9.1,3.014,8.661,3.771,8.372,4.546	c-0.343,0.92-0.46,1.81-0.507,2.414l0.013-0.008c0.353-0.2,0.816-0.4,1.312-0.516c0.496-0.116,1.03-0.151,1.514,0.039	c0.484,0.19,0.884,0.637,1.029,1.315c0.695,3.257-0.216,4.468-0.552,5.382c-0.107,0.263-0.218,0.601-0.311,0.946l-0.016,0.067	c0.042-0.01,0.085-0.022,0.127-0.026c0.237-0.02,0.423,0.06,0.533,0.108c0.338,0.142,0.57,0.44,0.695,0.78	c0.033,0.089,0.056,0.185,0.07,0.284c0.013,0.034,0.02,0.074,0.02,0.115c0,0.004,0,0.008,0,0.012	c-0.016,0.5-0.026,1.087-0.026,1.677c0,0.699,0.014,1.395,0.04,2.088c0.023,0.526,0.056,0.992,0.097,1.359	c0.043,0.374,0.103,0.657,0.141,0.753c0.126,0.32,0.311,0.739,0.645,1.024c0.334,0.284,0.813,0.474,1.688,0.284	c0.759-0.165,1.227-0.394,1.54-0.723c0.313-0.329,0.499-0.787,0.618-1.488c0.179-1.05,0.538-4.095,0.582-4.668	c-0.02-0.432,0.043-0.764,0.18-1.017c0.14-0.26,0.358-0.419,0.545-0.505c0.094-0.043,0.182-0.072,0.254-0.093	c-0.088-0.127-0.167-0.233-0.249-0.336l0.009,0.011c-0.259-0.316-0.48-0.679-0.647-1.07l-0.011-0.029	c-0.101-0.209-0.186-0.367-0.275-0.522l0.021,0.039c-0.131-0.24-0.297-0.54-0.471-0.877c-0.348-0.675-0.726-1.493-0.923-2.29	c-0.196-0.796-0.224-1.62,0.278-2.201c0.444-0.516,1.225-0.73,2.396-0.61c-0.034-0.105-0.055-0.192-0.114-0.332	c-0.285-0.67-0.628-1.248-1.035-1.772c-0.993-1.282-2.598-2.551-5.076-2.592H12.396z"/><path fill="#32648D" d="M11.622,16.666c0,0.012,0,0.023,0,0.035l0,0V16.666z"/><polygon fill="#32648D" points="7.851,7.77 7.853,7.769 7.856,7.766"/><polygon fill="#32648D" points="9.321,7.093 9.331,7.092 9.339,7.089"/><polygon fill="#32648D" points="10.047,7.391 10.045,7.391 10.045,7.391"/><path fill="#32648D" d="M10.56,12.937c0.401-1.094,1.19-1.892,0.526-5.006c-0.109-0.51-0.324-0.716-0.62-0.832	c-0.144-0.053-0.311-0.084-0.486-0.084c-0.011,0-0.023,0-0.034,0l0.002,0C9.735,7.017,9.529,7.044,9.331,7.092	C8.911,7.198,8.541,7.348,8.197,7.54c-0.129,0.071-0.24,0.145-0.344,0.228L7.834,7.786c0.006,0.146,0.034,0.5,0.046,1.021	c0.012,0.57-0.002,1.297-0.111,2.084c-0.236,1.71,0.99,3.126,2.43,3.128C10.284,13.668,10.422,13.312,10.56,12.937z M9.709,7.968	L9.709,7.968C9.662,7.92,9.624,7.866,9.593,7.807L9.591,7.803C9.565,7.761,9.55,7.71,9.55,7.655c0-0.01,0.001-0.02,0.002-0.03v0.001	C9.567,7.518,9.655,7.462,9.74,7.431C9.819,7.405,9.907,7.39,10.001,7.39c0.014,0,0.028,0,0.044,0.001l-0.001-0.004	c0.052,0,0.108,0.005,0.164,0.013c0.151,0.021,0.286,0.062,0.388,0.122c0.051,0.028,0.095,0.063,0.13,0.105l0.001,0.001	c0.034,0.039,0.054,0.09,0.054,0.147c0,0.008,0,0.016-0.001,0.024V7.798c-0.01,0.06-0.037,0.112-0.074,0.154	c-0.041,0.05-0.087,0.093-0.139,0.129l-0.002,0.001C10.464,8.156,10.337,8.2,10.2,8.2c-0.027,0-0.054-0.002-0.08-0.005h0.003	C9.957,8.167,9.815,8.085,9.709,7.968z"/><path fill="#32648D" d="M8.177,7.55c0.007-0.004,0.014-0.006,0.02-0.01C8.198,7.54,8.199,7.539,8.2,7.538L8.177,7.55z"/><path fill="#32648D" d="M18.115,3.752c0.433,0.555,0.808,1.187,1.097,1.865l0.021,0.055c0.109,0.264,0.182,0.487,0.223,0.66	c0.021,0.087,0.035,0.16,0.04,0.236c0.002,0.038,0.004,0.077-0.012,0.144c0,0.003-0.005,0.01-0.006,0.013	c0.03,0.876-0.185,1.47-0.21,2.306c-0.02,0.606,0.133,1.318,0.171,2.095c0.036,0.73-0.051,1.532-0.52,2.319	c0.04,0.048,0.075,0.096,0.113,0.144c1.239-1.975,2.132-4.16,2.608-6.023c0.255-1.003,0.39-1.912,0.402-2.632	c0.01-0.72-0.123-1.242-0.291-1.46c-1.326-1.716-3.119-2.153-4.623-2.165V1.31h-0.144c-0.58,0.009-1.14,0.076-1.681,0.193	C16.531,2.055,17.461,2.905,18.115,3.752z"/><path d="M12.561,0.258h-0.01C11.387,0.238,10.388,0.524,9.581,1C8.787,0.721,7.14,0.24,5.403,0.336	C4.194,0.403,2.874,0.775,1.896,1.82C0.921,2.865,0.406,4.482,0.514,6.682c0.03,0.607,0.201,1.597,0.484,2.879	c0.284,1.282,0.682,2.783,1.179,4.152c0.497,1.37,1.041,2.6,1.892,3.436c0.425,0.419,1.01,0.771,1.699,0.742	c0.484-0.02,0.921-0.235,1.299-0.552c0.184,0.245,0.38,0.352,0.559,0.451C7.851,17.915,8.07,18,8.297,18.056	c0.408,0.103,1.106,0.241,1.924,0.1c0.279-0.047,0.572-0.139,0.864-0.27c0.011,0.33,0.024,0.653,0.036,0.98	c0.041,1.036,0.066,1.993,0.373,2.832c0.049,0.137,0.185,0.843,0.718,1.466c0.533,0.624,1.579,1.013,2.769,0.755	c0.84-0.182,1.907-0.51,2.617-1.532c0.701-1.01,1.017-2.459,1.08-4.809c0.016-0.127,0.035-0.235,0.054-0.336l0.167,0.015h0.02	c0.896,0.041,1.868-0.088,2.68-0.47c0.719-0.337,1.263-0.678,1.66-1.283c0.099-0.15,0.207-0.331,0.237-0.643	c0.03-0.312-0.147-0.8-0.441-1.025c-0.588-0.452-0.957-0.28-1.353-0.197c-0.353,0.083-0.761,0.135-1.179,0.146h-0.008	c1.142-1.947,1.961-4.015,2.428-5.845c0.277-1.08,0.432-2.076,0.444-2.947c0.013-0.871-0.057-1.642-0.573-2.309	c-1.611-2.084-3.876-2.66-5.629-2.68c-0.054-0.001-0.109-0.002-0.163-0.001V0c-0.954,0.008-1.872,0.152-2.741,0.409L14.24,0.423	C13.738,0.329,13.155,0.269,12.561,0.258z M14.93,0.895c0.612-0.151,1.316-0.242,2.04-0.251h0.006l0.001-0.004	c1.658-0.016,3.775,0.455,5.296,2.422c0.342,0.442,0.444,1.088,0.432,1.884c-0.013,0.795-0.158,1.747-0.424,2.79	c-0.516,2.02-1.49,4.375-2.862,6.488c0.045,0.033,0.097,0.062,0.151,0.084l0.005,0.002c0.286,0.12,0.939,0.223,2.242-0.048	c0.328-0.07,0.568-0.117,0.817,0.075c0.112,0.096,0.182,0.238,0.182,0.397c0,0.01,0,0.02-0.001,0.03v-0.001	c-0.015,0.127-0.06,0.241-0.129,0.336c-0.252,0.383-0.749,0.746-1.385,1.045c-0.564,0.266-1.373,0.405-2.09,0.413	c-0.36,0.004-0.691-0.024-0.973-0.113l-0.018-0.007c-0.109,1.06-0.359,3.153-0.522,4.108c-0.13,0.77-0.358,1.382-0.794,1.84	c-0.435,0.458-1.05,0.734-1.878,0.914c-1.025,0.223-1.773-0.017-2.255-0.428c-0.481-0.41-0.701-0.954-0.834-1.287	c-0.091-0.23-0.138-0.528-0.184-0.926s-0.079-0.885-0.102-1.434c-0.022-0.558-0.034-1.214-0.034-1.873	c0-0.217,0.002-0.433,0.004-0.65c-0.413,0.384-0.935,0.654-1.515,0.757l-0.018,0.003c-0.681,0.117-1.288,0.002-1.651-0.09	c-0.193-0.049-0.361-0.118-0.519-0.204c-0.166-0.09-0.324-0.193-0.43-0.394c-0.042-0.077-0.067-0.17-0.067-0.268	c0-0.039,0.004-0.078,0.012-0.114c0.036-0.134,0.111-0.248,0.214-0.328l0.001-0.001c0.196-0.161,0.454-0.251,0.845-0.333	c0.71-0.148,0.958-0.249,1.109-0.37c0.128-0.104,0.274-0.314,0.53-0.622c-0.001-0.009-0.002-0.024-0.003-0.038v-0.003	c-0.484-0.014-0.935-0.145-1.329-0.366l0.015,0.008c-0.148,0.158-0.905,0.968-1.827,2.092c-0.388,0.47-0.817,0.74-1.269,0.759	s-0.861-0.211-1.209-0.552c-0.695-0.683-1.249-1.858-1.732-3.186c-0.482-1.328-0.874-2.807-1.153-4.067	c-0.28-1.26-0.444-2.276-0.468-2.766c-0.104-2.082,0.377-3.485,1.202-4.37c0.826-0.885,1.958-1.22,3.061-1.284	c1.981-0.115,3.861,0.584,4.242,0.734C10.396,1.194,11.341,0.88,12.52,0.9c0.594,0.009,1.165,0.088,1.711,0.229l-0.05-0.011	l0.02-0.009c0.191-0.072,0.435-0.145,0.685-0.205L14.93,0.895z"/></svg>